<?xml version="1.0" encoding="UTF-8"?>
<svg id="Calque_1" xmlns="http://www.w3.org/2000/svg" version="1.1" viewBox="0 0 32 32">
  <!-- Generator: Adobe Illustrator 29.4.0, SVG Export Plug-In . SVG Version: 2.1.0 Build 152)  -->
  <defs>
    <style>
      .st0 {
        fill: none;
        stroke: #04656e;
        stroke-miterlimit: 10;
        stroke-width: .38px;
      }

      .st1 {
        fill: #ebeba5;
      }

      .st2 {
        fill: #10102a;
      }
    </style>
  </defs>
  <circle class="st2" cx="16" cy="16" r="16"/>
  <circle class="st0" cx="16" cy="16" r="15.5"/>
  <path class="st1" d="M20.86,6.13c-.72,0-1.47.21-2.16.59-.55.3-1.05.71-1.47,1.22-.05-.05-.11-.1-.16-.16-2.05-2.35-5.39-1.86-6.91.06-.25.21-.42.53-.42.88,0,.63.51,1.14,1.14,1.14s1.14-.51,1.14-1.14c0-.43-.24-.81-.59-1,1.37-.99,3.56-1.09,5.02.59.1.11.19.21.3.31-.48.86-.74,1.92-.6,3.13-.53-.72-1.36-1.2-2.37-1.18-.53.01-1.1.16-1.7.5-2.6,1.45-1.6,4.45-6.59,4.46,2.03,1.25,4.09,1.79,5.88,1.8-.63,3.07,1.43,6.97,6.31,9.11-2.38-4.14.78-5.52,1.93-8,2.6.41,4.52-2.57,5.77,2.3,1.19-6.62-3.73-9.47-6.81-9.11-.62.07-1.12.34-1.5.73-.33-1.31-.16-2.39.28-3.23,1.17.86,2.64,1.27,3.88,1.27.79,0,1.51-.17,2.01-.59s.69-1.16.4-1.92c-.36-.96-1.18-1.53-2.1-1.7-.23-.04-.47-.06-.7-.06h.02ZM20.87,6.93c.19,0,.38.01.55.04.7.13,1.23.49,1.5,1.19.2.54.11.79-.17,1.02-.27.23-.82.4-1.5.4-1.07,0-2.4-.39-3.43-1.14.36-.43.79-.78,1.26-1.03.58-.31,1.21-.48,1.79-.49h0ZM14.82,12.45c.27,0,.57.04.9.12-3.1.63-3.62,4.27-7.1,3.51,3.02-.43,3.54-3.66,6.2-3.63h0ZM16.28,13.28c2.26,4.73-2.89,6.7-.43,11.07-3.65-4.03,1-5.96.43-11.07h0ZM17.35,13.45c1.82,1.99,5.75-.47,7.05,3.87-1.89-3.08-5.65-.96-7.05-3.87h0Z"/>
</svg>