<?xml version="1.0" encoding="UTF-8"?>
<svg id="Calque_1" xmlns="http://www.w3.org/2000/svg" version="1.1" xmlns:xlink="http://www.w3.org/1999/xlink" viewBox="0 0 512 512">
  <!-- Generator: Adobe Illustrator 29.4.0, SVG Export Plug-In . SVG Version: 2.1.0 Build 152)  -->
  <defs>
    <style>
      .st0 {
        opacity: .4;
      }

      .st0, .st1, .st2, .st3 {
        isolation: isolate;
      }

      .st0, .st3 {
        fill: #04656e;
      }

      .st1 {
        stroke-linecap: round;
        stroke-width: 1.34px;
      }

      .st1, .st4 {
        fill: none;
        stroke: #04656e;
      }

      .st5 {
        fill: url(#Dégradé_sans_nom);
      }

      .st6, .st2 {
        fill: #ebeba5;
      }

      .st2 {
        font-family: Georgia-Bold, Georgia;
        font-size: 37.04px;
        font-weight: 700;
        letter-spacing: .08em;
      }

      .st4 {
        stroke-width: 5.37px;
      }

      .st7 {
        fill: #10102a;
      }
    </style>
    <radialGradient id="Dégradé_sans_nom" data-name="Dégradé sans nom" cx=".5" cy="511.5" fx=".5" fy="511.5" r=".45" gradientTransform="translate(36 225316) scale(440 -440)" gradientUnits="userSpaceOnUse">
      <stop offset="0" stop-color="#04656e" stop-opacity=".18"/>
      <stop offset="1" stop-color="#04656e" stop-opacity="0"/>
    </radialGradient>
  </defs>
  <circle class="st7" cx="256" cy="256" r="229.08"/>
  <circle class="st5" cx="256" cy="256" r="196.87"/>
  <circle class="st4" cx="256" cy="256" r="221.92"/>
  <path class="st6" d="M325.14,97.97c-9.36.1-19.12,2.76-28.09,7.62-7.13,3.86-13.73,9.26-19.17,15.94-.68-.7-1.44-1.33-2.08-2.06-26.63-30.58-70.17-24.15-89.9.75-3.31,2.73-5.42,6.86-5.42,11.48,0,8.22,6.66,14.87,14.87,14.87s14.89-6.66,14.89-14.87c0-5.61-3.12-10.49-7.71-13.02,17.78-12.88,46.37-14.18,65.38,7.65,1.24,1.42,2.53,2.78,3.88,4.09-6.31,11.18-9.59,24.93-7.78,40.7-6.86-9.33-17.76-15.66-30.81-15.38-6.87.15-14.34,2.13-22.13,6.47-33.78,18.81-20.85,57.89-85.78,57.99,26.41,16.21,53.21,23.32,76.59,23.4-8.16,39.89,18.62,90.73,82.11,118.57-30.96-53.84,10.2-71.88,25.11-104.06,33.78,5.35,58.86-33.51,75.15,29.92,15.48-86.15-48.61-123.26-88.66-118.53-8.07.95-14.63,4.46-19.54,9.56-4.28-17.04-2.11-31.08,3.67-42.09,15.27,11.14,34.35,16.54,50.51,16.48,10.34-.04,19.68-2.18,26.22-7.69,6.53-5.51,8.98-15.04,5.24-24.94-4.72-12.51-15.42-19.93-27.39-22.11-2.99-.54-6.05-.79-9.17-.75h0ZM325.26,108.44c2.49-.04,4.9.16,7.18.58,9.13,1.66,16.05,6.44,19.47,15.5,2.65,7.02,1.38,10.25-2.2,13.27-3.58,3.02-10.73,5.19-19.52,5.23-13.88.05-31.25-5.07-44.62-14.8,4.66-5.62,10.33-10.11,16.45-13.42,7.56-4.09,15.77-6.23,23.25-6.34ZM246.58,180.2c3.58.03,7.45.53,11.69,1.55-40.36,8.26-47.15,55.64-92.37,45.74,39.32-5.56,46.1-47.62,80.68-47.29h0ZM265.59,191.11c29.4,61.55-37.57,87.26-5.57,144.05-47.46-52.49,12.96-77.57,5.57-144.05h0ZM279.52,193.29c23.65,25.92,74.78-6.16,91.77,50.33-24.57-40.02-73.49-12.52-91.77-50.33h0Z"/>
  <line class="st1" x1="166.52" y1="376.8" x2="345.48" y2="376.8"/>
  <circle class="st3" cx="256" cy="376.8" r="2.68"/>
  <circle class="st0" cx="166.52" cy="402.75" r="1.79"/>
  <circle class="st0" cx="345.48" cy="402.75" r="1.79"/>
  <text class="st2" transform="translate(134.87 415.7)"><tspan x="0" y="0">WorksVine</tspan></text>
</svg>