<?xml version="1.0" encoding="UTF-8"?>
<svg id="Calque_1" xmlns="http://www.w3.org/2000/svg" version="1.1" xmlns:xlink="http://www.w3.org/1999/xlink" viewBox="0 0 512 512">
  <!-- Generator: Adobe Illustrator 29.4.0, SVG Export Plug-In . SVG Version: 2.1.0 Build 152)  -->
  <defs>
    <style>
      .st0 {
        opacity: .4;
      }

      .st0, .st1, .st2, .st3 {
        isolation: isolate;
      }

      .st0, .st3 {
        fill: #04656e;
      }

      .st4 {
        fill: url(#Dégradé_sans_nom);
      }

      .st1 {
        font-family: Georgia-Bold, Georgia;
        font-size: 41.39px;
        font-weight: 700;
        letter-spacing: .08em;
      }

      .st1, .st5 {
        fill: #ebeba5;
      }

      .st6 {
        stroke-width: 6px;
      }

      .st6, .st2 {
        fill: none;
        stroke: #04656e;
      }

      .st2 {
        stroke-linecap: round;
        stroke-width: 1.5px;
      }

      .st7 {
        fill: #10102a;
      }
    </style>
    <radialGradient id="Dégradé_sans_nom" data-name="Dégradé sans nom" cx=".5" cy="511.5" fx=".5" fy="511.5" r=".5" gradientTransform="translate(36 225316) scale(440 -440)" gradientUnits="userSpaceOnUse">
      <stop offset="0" stop-color="#04656e" stop-opacity=".18"/>
      <stop offset="1" stop-color="#04656e" stop-opacity="0"/>
    </radialGradient>
  </defs>
  <circle class="st7" cx="256" cy="256" r="256"/>
  <circle class="st4" cx="256" cy="256" r="220"/>
  <circle class="st6" cx="256" cy="256" r="248"/>
  <path class="st5" d="M333.27,79.4c-10.46.12-21.36,3.09-31.39,8.52-7.97,4.32-15.34,10.35-21.42,17.81-.76-.78-1.61-1.49-2.33-2.31-29.76-34.17-78.41-26.99-100.47.84-3.69,3.05-6.05,7.67-6.05,12.83,0,9.18,7.44,16.62,16.62,16.62s16.64-7.44,16.64-16.62c0-6.27-3.49-11.72-8.61-14.55,19.88-14.39,51.81-15.85,73.07,8.55,1.39,1.59,2.83,3.11,4.34,4.57-7.05,12.49-10.72,27.86-8.69,45.49-7.66-10.43-19.85-17.5-34.43-17.19-7.68.17-16.02,2.38-24.73,7.23-37.75,21.02-23.3,64.69-95.86,64.8,29.51,18.11,59.47,26.06,85.59,26.15-9.11,44.58,20.81,101.4,91.76,132.5-34.6-60.17,11.4-80.33,28.07-116.29,37.75,5.97,65.78-37.45,83.98,33.44,17.3-96.27-54.32-137.74-99.08-132.46-9.01,1.06-16.35,4.98-21.84,10.68-4.78-19.04-2.36-34.73,4.1-47.03,17.07,12.45,38.38,18.48,56.45,18.42,11.56-.04,22-2.44,29.3-8.59,7.3-6.16,10.03-16.81,5.86-27.87-5.27-13.98-17.23-22.27-30.61-24.71-3.34-.61-6.77-.88-10.25-.84h0ZM333.4,91.1c2.79-.04,5.48.18,8.03.65,10.21,1.86,17.94,7.2,21.76,17.32,2.96,7.85,1.54,11.45-2.46,14.83-4,3.37-11.99,5.8-21.82,5.84-15.51.06-34.92-5.67-49.86-16.54,5.2-6.28,11.55-11.3,18.38-15,8.44-4.57,17.62-6.97,25.98-7.09ZM245.47,171.3c4,.04,8.33.59,13.07,1.74-45.11,9.23-52.69,62.18-103.22,51.11,43.94-6.21,51.51-53.22,90.16-52.85h0ZM266.72,183.48c32.85,68.78-41.99,97.52-6.23,160.98-53.04-58.66,14.48-86.68,6.23-160.98h0ZM282.29,185.93c26.43,28.96,83.57-6.89,102.56,56.25-27.46-44.73-82.13-13.99-102.56-56.25h0Z"/>
  <line class="st2" x1="156" y1="391" x2="356" y2="391"/>
  <circle class="st3" cx="256" cy="391" r="3"/>
  <circle class="st0" cx="156" cy="420" r="2"/>
  <circle class="st0" cx="356" cy="420" r="2"/>
  <text class="st1" transform="translate(120.64 434.46)"><tspan x="0" y="0">WorksVine</tspan></text>
</svg>